<svg xmlns="http://www.w3.org/2000/svg" width="32" height="32" fill="none"><path fill="#fff" fill-opacity=".6" d="M16 32a15.7 15.7 0 0 1-6.22-1.27 16.02 16.02 0 0 1-5.1-3.4 16.02 16.02 0 0 1-3.41-5.11A15.7 15.7 0 0 1 0 16c0-2.17.42-4.24 1.27-6.22a16.02 16.02 0 0 1 3.4-5.1 16.02 16.02 0 0 1 5.11-3.41A15.7 15.7 0 0 1 16 0c2.17 0 4.24.42 6.22 1.27 1.98.84 3.68 1.97 5.1 3.4a16.02 16.02 0 0 1 3.41 5.11A15.7 15.7 0 0 1 32 16c0 2.17-.42 4.24-1.27 6.22a16.02 16.02 0 0 1-3.4 5.1 16.02 16.02 0 0 1-5.11 3.41A15.7 15.7 0 0 1 16 32zm9.4-24c-.12.06-.3.18-.56.34l-.6.41-.58.31-.66.22A3.68 3.68 0 0 0 20.16 8c-2.44 0-3.66 1.02-3.66 3.06v1.85c-3.35-.17-5.93-1.4-7.72-3.7A2.52 2.52 0 0 0 8 11c0 1.38.51 2.42 1.53 3.13-.12 0-.3 0-.53.03-.23.02-.41.02-.55 0A1.57 1.57 0 0 1 8 14c0 .96.26 1.76.77 2.4a3.53 3.53 0 0 0 2.1 1.23c-.2.25-.5.37-.87.37-.33 0-.63-.1-.88-.28 0 .81.4 1.44 1.18 1.89.78.45 1.66.68 2.64.7-.38.57-.92.99-1.64 1.27-.72.28-1.49.42-2.3.42-.3 0-.7-.07-1.2-.22l-.8-.22c.33.67 1.02 1.24 2.05 1.72 1.03.48 2.34.72 3.92.72a10.3 10.3 0 0 0 7-2.69A13.08 13.08 0 0 0 24 12c0-.04.13-.13.38-.27.25-.13.54-.31.87-.54.33-.23.58-.47.75-.72-1.13 0-1.88.02-2.25.06.73-.44 1.28-1.28 1.66-2.53z"/></svg>