<svg width="32" height="32" fill="none" xmlns="http://www.w3.org/2000/svg"><path d="M20.7999 16.0001c0 1.2731-.5057 2.494-1.4058 3.3942a4.80031 4.80031 0 0 1-6.7883 0c-.9001-.9002-1.4059-2.1211-1.4059-3.3942 0-.2736.0288-.5408.0784-.8H9.59995v6.3952c0 .4448.36.8048.80475.8048h11.192a.80507.80507 0 0 0 .5681-.2362.80485.80485 0 0 0 .2351-.5686v-6.3952h-1.6784c.0496.2592.0784.5264.0784.8zm-4.8 3.2c.4204-.0001.8366-.083 1.2249-.2439a3.20079 3.20079 0 0 0 1.7318-1.7327c.1608-.3884.2435-.8046.2433-1.225a3.20161 3.20161 0 0 0-.2439-1.2248 3.20079 3.20079 0 0 0-.6941-1.0382 3.19895 3.19895 0 0 0-1.0386-.6936 3.20023 3.20023 0 0 0-1.225-.2434 3.20067 3.20067 0 0 0-2.263.9381 3.20087 3.20087 0 0 0-.937 2.2635c.0003.8489.3377 1.663.9381 2.2631a3.20078 3.20078 0 0 0 2.2635.9369zm3.84-6.56h1.9184c.1275 0 .2498-.0505.34-.1405a.48113.48113 0 0 0 .1416-.3395v-1.9184a.4816.4816 0 0 0-.141-.34051.4816.4816 0 0 0-.3406-.14105h-1.9184a.4817.4817 0 0 0-.4816.48156v1.9184c.0016.264.2176.48.4816.48zM15.9999.64014c-4.0737 0-7.98056 1.61828-10.86111 4.49884C2.25823 8.01954.63995 11.9264.63995 16.0001c0 4.0738 1.61828 7.9806 4.49884 10.8612 2.88055 2.8806 6.78741 4.4988 10.86111 4.4988 2.0172 0 4.0145-.3973 5.8781-1.1692a15.36023 15.36023 0 0 0 4.9831-3.3296 15.36023 15.36023 0 0 0 3.3296-4.9831 15.3603 15.3603 0 0 0 0-11.7561A15.3599 15.3599 0 0 0 15.9999.64014zm8 21.58236c0 .9776-.8 1.7776-1.7776 1.7776H9.77755c-.9776 0-1.7776-.8-1.7776-1.7776V9.77774c0-.9776.8-1.7776 1.7776-1.7776H22.2223c.9776 0 1.7776.8 1.7776 1.7776V22.2225z" fill="#fff" fill-opacity=".6"/></svg>