<svg xmlns="http://www.w3.org/2000/svg" width="163" height="35" fill="none"><path fill="#000" fill-rule="evenodd" d="M-.15.7v33.6h13.53a15.72 15.72 0 0 0 11.72-4.82 16.46 16.46 0 0 0 4.71-11.98A16.46 16.46 0 0 0 19.75 1.88 15.72 15.72 0 0 0 13.38.7H-.15zm7.73 26.21V8.09h5.8a8.65 8.65 0 0 1 6.5 2.57 9.4 9.4 0 0 1 2.5 6.84 9.4 9.4 0 0 1-2.5 6.84 8.64 8.64 0 0 1-6.5 2.57h-5.8zm34.8-5.95h12.08v-7.3H42.38V8.09h13.29V.7H34.65v33.6H55.9v-7.39H42.38v-5.95zM78.72 34.3L89.74.7H81.3l-7.5 24.72L66.3.7h-8.45l11.02 33.6h9.85zm14.4 0h7.74V.7h-7.73v33.6zm38.62-1.41a15.5 15.5 0 0 0 6.04-5.7l-6.67-3.83a7.48 7.48 0 0 1-3.16 3.02 9.87 9.87 0 0 1-4.67 1.1 9.6 9.6 0 0 1-7.17-2.73 9.91 9.91 0 0 1-2.69-7.25 9.93 9.93 0 0 1 2.69-7.25 9.6 9.6 0 0 1 7.17-2.74 9.9 9.9 0 0 1 4.64 1.08 7.59 7.59 0 0 1 3.2 3.05l6.66-3.84a15.87 15.87 0 0 0-6.09-5.69 17.42 17.42 0 0 0-8.4-2.08 17.12 17.12 0 0 0-17.6 17.47 17.12 17.12 0 0 0 17.59 17.47c2.95.03 5.86-.69 8.46-2.08zm17.88-11.93h12.08v-7.3h-12.08V8.09h13.29V.7h-21.03v33.6h21.27v-7.39h-13.53v-5.95z" clip-rule="evenodd"/></svg>